<mxfile host="app.diagrams.net" modified="2020-05-19T01:37:35.500Z" agent="5.0 (Windows NT 10.0; Win64; x64) AppleWebKit/537.36 (KHTML, like Gecko) Chrome/80.0.3987.122 Safari/537.36" etag="npzPPu5pFlJS9HGhT2n6" version="13.1.1" type="github" pages="2">
  <diagram id="bKS6v56cRj24D0KpqQBA" name="整体功能">
    <mxGraphModel dx="981" dy="548" grid="0" gridSize="10" guides="1" tooltips="1" connect="1" arrows="1" fold="1" page="1" pageScale="1" pageWidth="827" pageHeight="1169" math="0" shadow="0">
      <root>
        <mxCell id="0" />
        <mxCell id="1" parent="0" />
        <mxCell id="fE9IekPuGNw7qR5_7gXh-14" value="" style="rounded=0;whiteSpace=wrap;html=1;dashed=1;" vertex="1" parent="1">
          <mxGeometry x="293" y="104" width="299" height="241" as="geometry" />
        </mxCell>
        <mxCell id="fE9IekPuGNw7qR5_7gXh-12" value="" style="rounded=0;whiteSpace=wrap;html=1;dashed=1;" vertex="1" parent="1">
          <mxGeometry x="70" y="61" width="171" height="306" as="geometry" />
        </mxCell>
        <mxCell id="fE9IekPuGNw7qR5_7gXh-1" value="生产者管理" style="rounded=1;whiteSpace=wrap;html=1;" vertex="1" parent="1">
          <mxGeometry x="105" y="109" width="101" height="34" as="geometry" />
        </mxCell>
        <mxCell id="fE9IekPuGNw7qR5_7gXh-2" value="消费者管理" style="rounded=1;whiteSpace=wrap;html=1;" vertex="1" parent="1">
          <mxGeometry x="105" y="152" width="101" height="34" as="geometry" />
        </mxCell>
        <mxCell id="fE9IekPuGNw7qR5_7gXh-3" value="主题管理" style="rounded=1;whiteSpace=wrap;html=1;" vertex="1" parent="1">
          <mxGeometry x="105" y="195" width="101" height="34" as="geometry" />
        </mxCell>
        <mxCell id="fE9IekPuGNw7qR5_7gXh-4" value="主题监控" style="rounded=1;whiteSpace=wrap;html=1;" vertex="1" parent="1">
          <mxGeometry x="105" y="235" width="101" height="34" as="geometry" />
        </mxCell>
        <mxCell id="fE9IekPuGNw7qR5_7gXh-5" value="消息监控" style="rounded=1;whiteSpace=wrap;html=1;" vertex="1" parent="1">
          <mxGeometry x="105" y="275" width="101" height="34" as="geometry" />
        </mxCell>
        <mxCell id="fE9IekPuGNw7qR5_7gXh-6" value="Kafka集群监控" style="rounded=1;whiteSpace=wrap;html=1;" vertex="1" parent="1">
          <mxGeometry x="105" y="315" width="101" height="34" as="geometry" />
        </mxCell>
        <mxCell id="fE9IekPuGNw7qR5_7gXh-8" value="校验" style="rounded=1;whiteSpace=wrap;html=1;" vertex="1" parent="1">
          <mxGeometry x="396" y="167" width="101" height="34" as="geometry" />
        </mxCell>
        <mxCell id="fE9IekPuGNw7qR5_7gXh-9" value="数据发送" style="rounded=1;whiteSpace=wrap;html=1;" vertex="1" parent="1">
          <mxGeometry x="320" y="220" width="101" height="34" as="geometry" />
        </mxCell>
        <mxCell id="fE9IekPuGNw7qR5_7gXh-10" value="数据接受" style="rounded=1;whiteSpace=wrap;html=1;" vertex="1" parent="1">
          <mxGeometry x="457" y="220" width="101" height="34" as="geometry" />
        </mxCell>
        <mxCell id="fE9IekPuGNw7qR5_7gXh-11" value="收发日志记录" style="rounded=1;whiteSpace=wrap;html=1;" vertex="1" parent="1">
          <mxGeometry x="397" y="269" width="101" height="34" as="geometry" />
        </mxCell>
        <mxCell id="fE9IekPuGNw7qR5_7gXh-13" value="Kafka管理系统" style="text;html=1;strokeColor=none;fillColor=none;align=center;verticalAlign=middle;whiteSpace=wrap;rounded=0;dashed=1;" vertex="1" parent="1">
          <mxGeometry x="105" y="74" width="101" height="20" as="geometry" />
        </mxCell>
        <mxCell id="fE9IekPuGNw7qR5_7gXh-15" value="Kafka SDK" style="text;html=1;strokeColor=none;fillColor=none;align=center;verticalAlign=middle;whiteSpace=wrap;rounded=0;dashed=1;" vertex="1" parent="1">
          <mxGeometry x="397" y="116" width="99" height="20" as="geometry" />
        </mxCell>
      </root>
    </mxGraphModel>
  </diagram>
  <diagram id="sNWCPpMM0XTwDT3Wz6ek" name="Page-2">
    <mxGraphModel dx="539" dy="328" grid="0" gridSize="10" guides="1" tooltips="1" connect="1" arrows="1" fold="1" page="1" pageScale="1" pageWidth="827" pageHeight="1169" math="0" shadow="0">
      <root>
        <mxCell id="km4Pwn-EXgNUMti3Lu1q-0" />
        <mxCell id="km4Pwn-EXgNUMti3Lu1q-1" parent="km4Pwn-EXgNUMti3Lu1q-0" />
        <mxCell id="km4Pwn-EXgNUMti3Lu1q-3" value="" style="rounded=1;whiteSpace=wrap;html=1;" vertex="1" parent="km4Pwn-EXgNUMti3Lu1q-1">
          <mxGeometry x="272" y="330" width="106" height="37" as="geometry" />
        </mxCell>
        <mxCell id="km4Pwn-EXgNUMti3Lu1q-4" value="Kafka管理系统" style="text;html=1;strokeColor=none;fillColor=none;align=center;verticalAlign=middle;whiteSpace=wrap;rounded=0;" vertex="1" parent="km4Pwn-EXgNUMti3Lu1q-1">
          <mxGeometry x="267" y="263" width="111" height="20" as="geometry" />
        </mxCell>
        <mxCell id="km4Pwn-EXgNUMti3Lu1q-6" value="Kafka SDK" style="text;html=1;strokeColor=none;fillColor=none;align=center;verticalAlign=middle;whiteSpace=wrap;rounded=0;" vertex="1" parent="km4Pwn-EXgNUMti3Lu1q-1">
          <mxGeometry x="532" y="263" width="96" height="20" as="geometry" />
        </mxCell>
      </root>
    </mxGraphModel>
  </diagram>
</mxfile>
